<?xml version="1.0" encoding="utf-8"?>
<!-- Designed by Vexels.com - 2019 All Rights Reserved - https://vexels.com/terms-and-conditions/  -->
<svg version="1.1" id="Capa_1" xmlns="http://www.w3.org/2000/svg" xmlns:xlink="http://www.w3.org/1999/xlink" x="0px" y="0px"
	 viewBox="0 0 1200 1200" enable-background="new 0 0 1200 1200" xml:space="preserve">
<g>
	<g>
		<ellipse fill="#26603D" cx="681.986" cy="85.91" rx="231.218" ry="35.91"/>
	</g>
	<path fill="#26603D" d="M825.479,201.325c14.891-28.826,34.869-54.768,57.328-78.15c3.543-3.688,0.028-9.698-4.937-8.471
		c-40.913,10.106-113.351,16.823-195.888,16.823c-81.853,0-153.773-6.606-194.862-16.572c-5.039-1.222-8.536,4.893-4.871,8.561
		c20.152,20.166,45.228,49.543,59.857,82.188c3.409,7.369,7.894,17.06,13.049,30.307c-13.747-2.826-27.957-4.392-42.5-4.563
		c-124.214-1.46-225.858,102.459-225.858,226.682v468.685c0,123.262,99.924,223.186,223.188,223.186
		c26.547,0,53.046-4.711,77.927-13.987c24.112-8.989,46.603-22.202,66.231-38.837c19.517-16.54,36.167-36.422,48.997-58.554
		c13.088-22.574,22.147-47.431,26.638-73.137c3.194-18.274,3.26-36.597,3.802-55.072c0.536-18.344,1.134-36.687,1.795-55.026
		c1.221-33.798,2.661-67.587,4.376-101.364c4.977-98.094,9.845-197.189,22.568-294.997l44.137,0.001
		c-0.104-0.205-0.177-0.426-0.277-0.633c4.328,9.153,13.767,15.417,24.651,15.036c13.701-0.48,25.07-12.073,25.297-25.78
		c0.243-14.696-11.596-26.686-26.238-26.686c-10.48,0-19.497,6.158-23.703,15.039c0.096-0.202,0.169-0.418,0.27-0.617
		c0,0-16.58,0-40.882,0c5.629-39.098,12.58-77.966,21.463-116.442C796.208,279.233,806.682,237.708,825.479,201.325z
		 M509.985,313.753c28.113,0,54.059,9.276,74.949,24.931c5.905,26.907,11.816,58.827,17.414,96.702c-17.476,0-28.671,0-28.671,0
		c-18.734,0-33.919,15.187-33.919,33.921v9.225c-14.831-17.312-33.888-30.214-55.363-36.758v-6.387
		c-0.023,0.002-0.047,0.001-0.07,0.003c6.53-0.581,11.435-3.029,11.435-5.965c0-3.368-6.453-6.098-14.413-6.098
		c-7.961,0-14.415,2.73-14.415,6.098c0,2.936,4.905,5.384,11.435,5.965c-0.023-0.002-0.047-0.001-0.07-0.003c0,0,0,2.22,0,4.717
		c-8.405-2.044-17.134-3.144-26.1-3.144c-2.967,0-5.909,0.136-8.828,0.37v-1.942c-0.023,0.002-0.047,0.001-0.07,0.003
		c6.53-0.581,11.435-3.029,11.435-5.965c0-3.368-6.453-6.098-14.415-6.098c-7.96,0-14.413,2.73-14.413,6.098
		c0,2.936,4.905,5.384,11.435,5.965c-0.023-0.002-0.049-0.001-0.07-0.003c0,0,0,1.725,0,2.675
		c-11.169,1.528-21.874,4.721-31.889,9.362c-0.967-0.192-1.969-0.355-3.039-0.453v-11.584c-0.023,0.002-0.047,0.001-0.07,0.003
		c6.53-0.581,11.435-3.029,11.435-5.965c0-3.368-6.453-6.098-14.415-6.098c-6.713,0-12.305,1.951-13.907,4.579
		C390.939,363.944,444.586,313.753,509.985,313.753z M519.507,559.211v298.8c0,22.502-9.229,42.617-23.736,56.141l-0.01-216.149
		V503.06C510.272,516.584,519.507,536.703,519.507,559.211z M454.735,571.603v-85.985c4.173,0.171,8.252,0.721,12.197,1.687
		c0,22.568,0,53.498,0,84.298H454.735z M466.932,587.485c0,45.492,0,91.177,0,110.519v182.951c0,3.368-2.731,6.098-6.099,6.098
		s-6.099-2.73-6.099-6.098V698.004V587.485H466.932z M425.907,491.318c0,21.888,0,50.764,0,80.285H413.71v-72.836
		C417.515,495.854,421.583,493.329,425.907,491.318z M384.881,438.856c0-2.757,0.122-5.485,0.297-8.198
		c1.152,2.368,5.551,4.233,11.139,4.731c-0.023-0.002-0.049-0.001-0.071-0.003v11.584c-3.755,0.343-6.932,1.315-8.972,2.629
		l-0.002-0.029l-0.038,0.053c-1.465,0.953-2.353,2.08-2.353,3.303c0,0.002,0.002,0.003,0.002,0.005l-0.002,0v-0.005V438.856z
		 M384.881,707.63l0.002-0.001c0,7.961,6.453,14.414,14.413,14.414c7.961,0,14.415-6.453,14.415-14.414V587.485h12.197
		c0,46.34,0,91.38,0,110.519l0.083,227.945c-24.157-11.195-41.11-37.398-41.11-67.938V707.63z M635.09,945.823
		c0,69.093-56.014,125.104-125.104,125.104c-65.633,0-119.423-50.551-124.649-114.837c19.155,14.165,42.008,22.262,66.861,22.262
		c66.318,0,120.081-58.894,120.081-131.543v-216.93h0.003V479.647c0-11.39,9.233-20.624,20.623-20.624l12.788,0
		c14.712,108.772,26.643,262.645,29.397,481.877V945.823z"/>
</g>
</svg>
